<?xml version="1.0" standalone="no"?>
<!DOCTYPE svg PUBLIC "-//W3C//DTD SVG 20010904//EN"
 "http://www.w3.org/TR/2001/REC-SVG-20010904/DTD/svg10.dtd">
<svg version="1.0" xmlns="http://www.w3.org/2000/svg"
 width="413.000000pt" height="413.000000pt" viewBox="0 0 413.000000 413.000000"
 preserveAspectRatio="xMidYMid meet">
<metadata>
Created by potrace 1.14, written by Peter Selinger 2001-2017
</metadata>
<g transform="translate(0.000000,413.000000) scale(0.100000,-0.100000)"
fill="#000000" stroke="none">
<path d="M928 4095 c-2 -2 -19 -7 -38 -10 -148 -25 -168 -67 -58 -119 121 -56
258 -164 258 -203 0 -8 4 -12 9 -9 5 3 11 -1 15 -9 10 -26 -10 -25 -69 6 -61
31 -162 62 -176 54 -4 -3 -10 -2 -13 3 -4 6 -121 9 -121 2 0 -1 -13 -3 -30 -4
-60 -5 -225 -76 -225 -97 0 -5 -6 -9 -14 -9 -8 0 -28 -16 -45 -35 -17 -19 -34
-35 -39 -35 -4 0 -16 -13 -25 -30 -10 -16 -23 -30 -28 -30 -6 0 -7 -4 -4 -10
3 -5 2 -10 -3 -10 -10 0 -81 -135 -85 -160 -2 -8 -5 -19 -9 -25 -3 -5 -5 -32
-4 -59 1 -46 3 -50 29 -53 17 -2 26 0 23 6 -4 5 2 12 12 15 10 4 34 20 52 36
18 16 36 27 40 25 5 -3 10 1 13 8 5 14 142 85 180 93 12 3 27 6 32 7 6 2 15 6
22 10 9 6 103 18 138 18 43 0 75 -5 75 -13 0 -4 -26 -20 -57 -35 -121 -56
-230 -152 -304 -268 -26 -41 -62 -127 -75 -180 -4 -16 -9 -37 -11 -45 -7 -26
-6 -204 2 -235 3 -16 8 -39 10 -50 2 -11 6 -29 9 -41 6 -30 52 -137 77 -178
11 -20 17 -36 12 -36 -4 0 0 -5 10 -11 9 -5 17 -16 17 -23 0 -7 12 -18 27 -25
37 -17 52 1 58 69 2 30 5 56 6 58 1 1 2 10 4 20 1 9 5 34 9 54 5 21 7 39 5 41
-2 2 1 10 8 18 6 8 14 26 17 41 2 14 9 34 14 44 5 11 20 42 33 69 13 28 36 69
51 92 15 23 28 46 28 51 0 6 4 12 8 14 4 2 27 30 50 62 23 33 42 55 42 50 1
-5 7 2 15 16 8 14 14 22 15 19 0 -3 22 16 50 43 27 26 54 48 60 48 6 0 8 5 5
10 -3 6 -1 10 5 10 5 0 36 18 68 39 61 42 130 77 135 70 6 -7 57 -153 61 -174
2 -11 9 -33 15 -48 6 -15 13 -40 16 -55 13 -73 16 -86 20 -93 3 -4 7 -24 11
-44 3 -21 8 -47 10 -59 2 -11 9 -48 14 -81 11 -67 17 -104 25 -153 7 -37 15
-94 19 -137 2 -16 7 -50 10 -75 4 -25 8 -65 11 -90 2 -25 7 -67 10 -95 8 -72
19 -213 30 -390 6 -93 17 -556 19 -775 l1 -175 30 1 c48 2 159 15 167 20 8 5
-1 290 -18 554 -3 52 -8 120 -9 150 -2 30 -6 89 -10 130 -3 41 -8 95 -10 120
-2 25 -6 72 -9 105 -3 33 -8 83 -10 110 -2 28 -7 66 -10 85 -2 19 -6 54 -7 78
-2 23 -5 42 -8 42 -3 0 -6 15 -7 33 -1 53 -25 233 -41 307 -2 14 -4 35 -4 48
0 12 -4 22 -10 22 -5 0 -8 3 -5 8 2 4 0 30 -6 57 -5 28 -12 64 -14 80 -3 17
-9 41 -14 55 -5 14 -11 39 -14 55 -4 27 -48 178 -63 215 -4 8 -7 18 -8 23 -2
4 -3 8 -5 10 -1 1 -3 10 -5 20 -2 10 -14 39 -27 65 -36 70 -32 87 17 87 60 0
227 -18 255 -28 8 -3 44 -15 80 -27 80 -27 260 -120 260 -133 0 -6 3 -8 6 -4
4 3 12 1 19 -6 6 -7 31 -28 55 -47 83 -66 152 -146 217 -247 50 -79 73 -94
100 -67 14 14 17 35 16 123 -1 127 -6 162 -41 262 -25 71 -82 182 -99 192 -7
4 -13 13 -13 20 -1 28 -197 197 -229 197 -6 0 -11 4 -11 8 0 20 -203 74 -277
76 -13 0 -23 4 -23 9 0 5 -6 5 -13 -1 -7 -6 -22 -9 -32 -7 -11 2 -26 4 -33 4
-18 1 11 31 35 36 10 2 38 11 61 20 82 29 257 39 352 20 19 -4 42 -8 50 -9 8
-1 22 -5 30 -8 61 -23 89 -25 103 -9 12 14 14 31 7 46 -1 3 -3 8 -4 13 -1 6
-18 35 -58 97 -7 10 -23 28 -36 38 -12 10 -28 24 -35 30 -35 34 -151 97 -178
97 -10 0 -20 4 -23 9 -6 10 -102 25 -156 24 -94 0 -173 -18 -237 -54 -17 -10
-34 -15 -37 -12 -3 4 -6 0 -6 -7 0 -7 -3 -11 -6 -8 -5 6 -14 -1 -65 -47 -9 -8
-21 -15 -27 -15 -6 0 -14 -9 -17 -20 -3 -11 -13 -20 -21 -20 -8 0 -14 -4 -14
-10 0 -25 -17 -5 -39 45 -13 30 -28 55 -33 55 -5 0 -7 4 -4 8 10 17 -101 107
-140 114 -10 2 -21 6 -24 9 -9 13 -192 34 -202 24z"/>
<path d="M1568 3228 c-18 -11 -41 -32 -49 -47 -20 -34 -17 -115 5 -136 9 -9
19 -22 23 -30 5 -8 28 -19 53 -26 39 -10 51 -9 88 7 23 10 42 22 42 26 0 3 8
14 17 23 24 25 24 93 0 138 -11 20 -26 37 -33 37 -7 0 -14 5 -16 10 -6 20 -94
18 -130 -2z"/>
<path d="M2730 3101 c-14 -4 -39 -11 -56 -15 -46 -12 -129 -78 -130 -104 -1
-19 23 -52 33 -44 1 1 4 2 6 1 1 0 11 -2 22 -4 59 -9 101 -18 124 -26 60 -22
141 -63 141 -71 0 -4 7 -8 15 -8 9 0 18 -7 21 -15 4 -8 13 -15 21 -15 8 0 12
-4 9 -9 -4 -5 -1 -11 6 -13 6 -2 8 -9 5 -15 -5 -8 -15 -7 -36 3 -63 31 -242
42 -328 20 -76 -20 -165 -60 -155 -71 4 -4 0 -6 -8 -3 -15 5 -47 -20 -119 -94
-52 -53 -57 -58 -91 -113 -35 -54 -51 -93 -60 -138 -6 -32 -4 -39 14 -49 11
-6 21 -11 21 -11 0 3 121 76 150 90 43 22 140 56 190 68 17 4 39 9 50 12 36 8
290 2 290 -7 0 -1 11 -3 25 -6 14 -2 32 -7 40 -11 20 -8 27 -10 45 -12 28 -2
15 -21 -40 -57 -30 -20 -55 -41 -55 -45 0 -5 -4 -8 -8 -7 -11 4 -82 -53 -154
-123 -32 -30 -58 -53 -58 -50 0 6 -58 -56 -130 -139 -25 -29 -55 -64 -68 -78
-12 -14 -32 -42 -44 -61 -12 -20 -24 -38 -28 -41 -4 -4 -19 -26 -79 -120 -9
-14 -23 -38 -31 -55 -8 -16 -17 -32 -20 -35 -6 -6 -65 -121 -66 -129 0 -3 -13
-33 -29 -66 -15 -33 -28 -64 -29 -70 -1 -5 -4 -14 -8 -20 -3 -5 -16 -41 -28
-80 -21 -69 -27 -89 -36 -132 -2 -12 -9 -35 -15 -50 -6 -16 -10 -29 -10 -30 1
-2 1 -4 0 -5 0 -2 -2 -14 -4 -28 -2 -14 -6 -38 -9 -55 -14 -71 -18 -133 -8
-139 6 -4 31 -8 55 -10 25 -2 49 -6 54 -9 6 -4 28 -9 51 -13 36 -6 41 -4 40
12 -1 25 9 95 26 179 24 116 71 275 102 342 8 17 14 34 14 37 0 3 11 29 25 58
14 28 25 56 25 61 0 5 9 20 20 34 11 14 18 29 15 33 -3 4 2 13 10 20 8 7 12
16 9 21 -3 5 -1 9 4 9 5 0 12 8 16 18 6 18 9 24 68 113 20 32 34 60 31 63 -4
3 -2 6 4 6 9 0 41 43 105 139 10 14 18 22 18 17 0 -5 13 9 30 32 36 51 256
272 270 272 5 0 10 7 10 16 0 8 4 13 9 9 5 -3 17 5 25 17 9 12 16 18 16 13 1
-6 10 1 20 14 11 13 20 19 20 15 0 -5 4 -3 9 5 7 12 18 6 49 -28 21 -23 45
-54 53 -69 7 -15 21 -38 30 -52 9 -14 17 -28 18 -33 0 -4 8 -24 17 -45 29 -69
52 -141 47 -146 -3 -2 -1 -10 3 -17 10 -16 16 -67 18 -136 0 -29 5 -53 9 -53
5 0 5 -5 2 -11 -4 -5 -8 -34 -10 -62 -5 -73 -13 -119 -35 -183 -21 -59 -18
-84 9 -84 21 0 78 29 110 55 51 43 131 128 126 135 -3 4 1 10 9 13 33 13 99
174 101 247 0 14 3 30 6 35 3 6 4 19 3 30 -2 11 -5 41 -7 66 -6 51 -28 124
-54 172 -10 18 -16 35 -15 40 1 4 -2 7 -6 7 -5 0 -17 16 -28 35 -10 19 -23 35
-28 35 -6 0 -6 4 0 10 12 12 64 -6 64 -22 0 -4 7 -8 15 -8 8 0 15 -4 15 -10 0
-5 7 -10 16 -10 8 0 12 -4 9 -10 -3 -5 -3 -10 2 -10 13 0 57 -42 83 -80 13
-19 27 -37 30 -40 4 -3 19 -31 35 -63 42 -87 68 -96 95 -34 26 58 21 223 -9
292 -5 11 -17 38 -27 60 -16 38 -80 126 -97 133 -4 2 -13 9 -20 16 -46 46
-184 99 -259 99 -27 0 -51 5 -55 11 -3 6 -3 8 2 4 4 -4 14 0 22 8 8 8 19 12
24 9 5 -4 9 -2 9 3 0 12 55 23 135 28 52 4 94 8 116 13 20 4 14 41 -12 67 -41
42 -49 48 -99 71 -81 37 -95 41 -165 41 -77 0 -123 -17 -171 -60 -33 -31 -44
-27 -58 19 -8 24 -84 132 -114 160 -28 27 -50 40 -122 75 -56 27 -78 31 -160
34 -52 2 -106 -1 -120 -5z"/>
<path d="M1043 3085 c-82 -35 -123 -120 -103 -211 23 -101 157 -163 251 -117
68 34 106 96 103 170 -6 127 -136 208 -251 158z"/>
<path d="M1619 736 c-2 -3 -22 -7 -44 -10 -51 -7 -91 -15 -135 -26 -19 -5 -38
-10 -42 -10 -4 0 -28 -9 -53 -20 -25 -11 -45 -18 -45 -16 0 8 -153 -63 -160
-74 -4 -7 -9 -10 -11 -8 -6 5 -139 -75 -139 -84 0 -4 -4 -8 -10 -8 -15 0 -47
-28 -145 -125 -87 -87 -125 -130 -125 -140 0 -3 -7 -13 -16 -24 -9 -10 -35
-51 -56 -90 l-40 -71 29 -1 c148 -5 421 -3 431 5 7 5 12 5 12 -1 0 -11 130
-11 148 0 6 5 12 5 12 0 0 -7 1564 -10 1595 -3 6 1 15 1 20 0 15 -3 128 -1
131 3 8 8 -75 145 -130 215 -19 24 -190 196 -214 215 -12 9 -26 17 -31 17 -5
0 -11 3 -13 8 -9 22 -222 138 -308 167 -3 1 -16 6 -30 12 -14 6 -41 14 -60 19
-50 12 -50 11 -52 14 -4 3 -76 17 -133 27 -40 7 -380 14 -386 9z"/>
</g>
</svg>
